<svg width="39" height="40" viewBox="0 0 39 40" fill="none" xmlns="http://www.w3.org/2000/svg">
<g clip-path="url(#clip0_80_2016)">
<path d="M12.9968 31.0469C12.9968 31.2031 12.8166 31.3281 12.5894 31.3281C12.3309 31.3516 12.1507 31.2266 12.1507 31.0469C12.1507 30.8906 12.3309 30.7656 12.5581 30.7656C12.7931 30.7422 12.9968 30.8672 12.9968 31.0469ZM10.5604 30.6953C10.5055 30.8516 10.6622 31.0312 10.8972 31.0781C11.1009 31.1562 11.3359 31.0781 11.3829 30.9219C11.43 30.7656 11.2811 30.5859 11.0461 30.5156C10.8424 30.4609 10.6152 30.5391 10.5604 30.6953ZM14.023 30.5625C13.7959 30.6172 13.6392 30.7656 13.6627 30.9453C13.6862 31.1016 13.8899 31.2031 14.1249 31.1484C14.3521 31.0938 14.5088 30.9453 14.4853 30.7891C14.4618 30.6406 14.2502 30.5391 14.023 30.5625ZM19.1779 0.625C8.31198 0.625 0 8.85156 0 19.6875C0 28.3516 5.4682 35.7656 13.2788 38.375C14.2816 38.5547 14.6341 37.9375 14.6341 37.4297C14.6341 36.9453 14.6106 34.2734 14.6106 32.6328C14.6106 32.6328 9.12673 33.8047 7.97512 30.3047C7.97512 30.3047 7.08203 28.0312 5.79724 27.4453C5.79724 27.4453 4.00323 26.2188 5.92258 26.2422C5.92258 26.2422 7.87327 26.3984 8.94654 28.2578C10.6622 31.2734 13.5373 30.4062 14.6576 29.8906C14.8378 28.6406 15.347 27.7734 15.9111 27.2578C11.5318 26.7734 7.11336 26.1406 7.11336 18.625C7.11336 16.4766 7.70876 15.3984 8.96221 14.0234C8.75853 13.5156 8.09263 11.4219 9.1659 8.71875C10.8032 8.21094 14.5714 10.8281 14.5714 10.8281C16.1382 10.3906 17.8226 10.1641 19.4912 10.1641C21.1599 10.1641 22.8442 10.3906 24.4111 10.8281C24.4111 10.8281 28.1793 8.20312 29.8166 8.71875C30.8899 11.4297 30.224 13.5156 30.0203 14.0234C31.2737 15.4062 32.0415 16.4844 32.0415 18.625C32.0415 26.1641 27.4272 26.7656 23.0479 27.2578C23.7687 27.875 24.3797 29.0469 24.3797 30.8828C24.3797 33.5156 24.3562 36.7734 24.3562 37.4141C24.3562 37.9219 24.7166 38.5391 25.7115 38.3594C33.5456 35.7656 38.8571 28.3516 38.8571 19.6875C38.8571 8.85156 30.0438 0.625 19.1779 0.625ZM7.61475 27.5703C7.5129 27.6484 7.53641 27.8281 7.66959 27.9766C7.79493 28.1016 7.97512 28.1562 8.07696 28.0547C8.1788 27.9766 8.1553 27.7969 8.02212 27.6484C7.89677 27.5234 7.71659 27.4688 7.61475 27.5703ZM6.76866 26.9375C6.71383 27.0391 6.79217 27.1641 6.94885 27.2422C7.07419 27.3203 7.23088 27.2969 7.28571 27.1875C7.34055 27.0859 7.26221 26.9609 7.10553 26.8828C6.94885 26.8359 6.8235 26.8594 6.76866 26.9375ZM9.30691 29.7188C9.18157 29.8203 9.22857 30.0547 9.40876 30.2031C9.58894 30.3828 9.81613 30.4062 9.91797 30.2812C10.0198 30.1797 9.97281 29.9453 9.81613 29.7969C9.64378 29.6172 9.40876 29.5938 9.30691 29.7188ZM8.41383 28.5703C8.28848 28.6484 8.28848 28.8516 8.41383 29.0312C8.53917 29.2109 8.75069 29.2891 8.85253 29.2109C8.97788 29.1094 8.97788 28.9062 8.85253 28.7266C8.74286 28.5469 8.53917 28.4688 8.41383 28.5703Z" fill="white"/>
</g>
<defs>
<clipPath id="clip0_80_2016">
<rect width="38.8571" height="40" fill="white"/>
</clipPath>
</defs>
</svg>
