<svg width="72" height="61" viewBox="0 0 72 61" fill="none" xmlns="http://www.w3.org/2000/svg">
<g filter="url(#filter0_d_35_50)">
<path d="M18.3005 48.7161H35.6938C36.9622 48.7161 37.9904 49.6382 37.9904 50.7756C37.9904 51.9131 36.9622 52.8352 35.6938 52.8352H18.3005C10.4096 52.8201 4.01688 47.0873 4.00003 40.0109V12.8793C3.9919 9.47076 5.49399 6.19895 8.17585 3.78362C10.8577 1.36828 14.4997 0.00727537 18.3005 0H30.1206C34.5685 0 38.1742 3.23353 38.1742 7.22228C38.1908 8.92986 39.7303 10.3105 41.6345 10.3254H53.4546C61.3455 10.3405 67.7382 16.0733 67.755 23.1497C67.7726 24.3119 66.7535 25.2746 65.4584 25.3192C64.8579 25.3416 64.2732 25.1433 63.8396 24.77C63.4061 24.3968 63.1612 23.8809 63.1617 23.342C63.2026 21.0044 62.2 18.7492 60.3768 17.0782C58.5537 15.4071 56.0614 14.4589 53.4546 14.4446H41.6345C37.1866 14.4446 33.5809 11.211 33.5809 7.22228C33.5314 5.53618 32.0014 4.18831 30.1206 4.17409H18.3005C12.9394 4.17409 8.59333 8.07154 8.59333 12.8793V40.0109C8.59333 44.8186 12.9394 48.7161 18.3005 48.7161Z" fill="white"/>
<path d="M56.6699 35.2326L51.4947 39.9834L49.6574 38.4181C49.0967 37.7727 48.1632 37.486 47.279 37.6879C46.3948 37.8898 45.7278 38.5418 45.5795 39.3492C45.4312 40.1565 45.8299 40.9659 46.5952 41.4114L50.0555 44.3772C50.4866 44.7421 51.0551 44.948 51.6479 44.9539C52.2711 44.9504 52.8668 44.7229 53.3014 44.3223L60.0689 38.1161C60.9568 37.2971 60.9362 35.9877 60.023 35.1914C59.1097 34.3952 57.6496 34.4137 56.7617 35.2326H56.6699Z" fill="white"/>
<path fill-rule="evenodd" clip-rule="evenodd" d="M47.0852 26.4451H59.334C64.125 26.4602 68 29.9475 68 34.244V45.2285C68 47.2896 67.087 49.2663 65.4618 50.7238C63.8366 52.1812 61.6323 53 59.334 53H47.0852C42.2941 53 38.4054 49.525 38.3885 45.2285V34.244C38.3885 29.9368 42.2822 26.4451 47.0852 26.4451ZM59.334 48.414C61.2958 48.414 62.8861 46.9878 62.8861 45.2285V34.244C62.8943 33.3944 62.5237 32.5771 61.8566 31.9738C61.1896 31.3704 60.2814 31.0311 59.334 31.0311H47.0852C45.1065 31.0311 43.5024 32.4696 43.5024 34.244V45.2285C43.5024 46.0781 43.8808 46.8926 44.5536 47.4907C45.2264 48.0889 46.1378 48.4213 47.0852 48.414H59.334Z" fill="white"/>
</g>
<defs>
<filter id="filter0_d_35_50" x="0" y="0" width="72" height="61" filterUnits="userSpaceOnUse" color-interpolation-filters="sRGB">
<feFlood flood-opacity="0" result="BackgroundImageFix"/>
<feColorMatrix in="SourceAlpha" type="matrix" values="0 0 0 0 0 0 0 0 0 0 0 0 0 0 0 0 0 0 127 0" result="hardAlpha"/>
<feOffset dy="4"/>
<feGaussianBlur stdDeviation="2"/>
<feComposite in2="hardAlpha" operator="out"/>
<feColorMatrix type="matrix" values="0 0 0 0 0 0 0 0 0 0 0 0 0 0 0 0 0 0 0.25 0"/>
<feBlend mode="normal" in2="BackgroundImageFix" result="effect1_dropShadow_35_50"/>
<feBlend mode="normal" in="SourceGraphic" in2="effect1_dropShadow_35_50" result="shape"/>
</filter>
</defs>
</svg>
