<svg width="80" height="81" viewBox="0 0 80 81" fill="none" xmlns="http://www.w3.org/2000/svg">
<g filter="url(#filter0_d_37_21)">
<path fill-rule="evenodd" clip-rule="evenodd" d="M64.0882 29.1027C64.7231 30.6498 66.2277 31.6619 67.9 31.6667C70.1698 31.6851 72.0001 33.5303 72 35.8001V42.9334C72 45.2162 70.1495 47.0667 67.8667 47.0667C66.1944 47.0716 64.6897 48.0837 64.0548 49.6308C63.4199 51.178 63.7799 52.9552 64.9667 54.1334C66.5588 55.7649 66.5588 58.3686 64.9667 60.0001L59.9667 65.0001C58.3352 66.5922 55.7315 66.5922 54.1 65.0001C53.3475 64.2028 52.2963 63.7557 51.2 63.7667C50.098 63.7579 49.0381 64.1894 48.2557 64.9655C47.4734 65.7416 47.0333 66.7981 47.0333 67.9001C47.0333 70.1829 45.1828 72.0334 42.9 72.0334H35.7667C33.4839 72.0334 31.6333 70.1829 31.6333 67.9001C31.6334 66.7981 31.1933 65.7416 30.411 64.9655C29.6286 64.1894 28.5687 63.7579 27.4667 63.7667C26.3704 63.7557 25.3192 64.2028 24.5667 65.0001C22.9352 66.5922 20.3315 66.5922 18.7 65.0001L13.7 60.0001C12.1079 58.3686 12.1079 55.7649 13.7 54.1334C14.8868 52.9552 15.2468 51.178 14.6119 49.6308C13.977 48.0837 12.4723 47.0716 10.8 47.0667C9.70379 47.0667 8.65246 46.6313 7.87731 45.8561C7.10216 45.081 6.66669 44.0296 6.66669 42.9334V35.8001C6.66669 33.5173 8.51724 31.6667 10.8 31.6667C12.4723 31.6619 13.977 30.6498 14.6119 29.1027C15.2468 27.5555 14.8868 25.7783 13.7 24.6001C12.1079 22.9686 12.1079 20.3649 13.7 18.7334L18.7 13.7334C20.3315 12.1413 22.9352 12.1413 24.5667 13.7334C25.3192 14.5307 26.3704 14.9778 27.4667 14.9667C28.5745 14.9757 29.6395 14.5396 30.4229 13.7563C31.2062 12.9729 31.6423 11.9079 31.6333 10.8001C31.6333 8.5173 33.4839 6.66675 35.7667 6.66675H42.9333C45.2161 6.66675 47.0667 8.5173 47.0667 10.8001C47.0577 11.9079 47.4938 12.9729 48.2772 13.7563C49.0605 14.5396 50.1256 14.9757 51.2333 14.9667C52.3297 14.9778 53.3808 14.5307 54.1333 13.7334C55.7649 12.1413 58.3685 12.1413 60 13.7334L65 18.7334C66.5921 20.3649 66.5921 22.9686 65 24.6001C63.8132 25.7783 63.4533 27.5555 64.0882 29.1027ZM59.3334 47.7001C60.6345 44.5275 63.6142 42.3605 67.0334 42.1001L66.9334 36.6334C63.5514 36.3369 60.6184 34.1757 59.3334 31.0334C58.0746 27.8837 58.651 24.2968 60.8334 21.7001L57 17.8667C55.3744 19.2281 53.3204 19.9718 51.2 19.9667C46.4762 19.9552 42.5288 16.3679 42.0667 11.6667H36.6C36.1528 16.3754 32.1965 19.9707 27.4667 19.9667C25.3463 19.9718 23.2923 19.2281 21.6667 17.8667L17.9334 21.7001C20.0818 24.3166 20.6195 27.9017 19.3334 31.0334C18.0483 34.1757 15.1153 36.3369 11.7334 36.6334V42.1001C15.1153 42.3966 18.0483 44.5577 19.3334 47.7001C20.5921 50.8498 20.0157 54.4367 17.8334 57.0334L21.6667 60.8667C23.2923 59.5054 25.3463 58.7617 27.4667 58.7667C32.1905 58.7783 36.1379 62.3656 36.6 67.0667H42.0667C42.4834 62.3429 46.458 58.731 51.2 58.7667C53.3204 58.7617 55.3744 59.5054 57 60.8667L60.7333 57.0334C58.5849 54.4169 58.0472 50.8318 59.3334 47.7001Z" fill="white"/>
<path fill-rule="evenodd" clip-rule="evenodd" d="M27.8 39.3667C27.8 32.9971 32.9637 27.8334 39.3334 27.8334C42.3922 27.8334 45.3257 29.0485 47.4886 31.2115C49.6516 33.3744 50.8667 36.3079 50.8667 39.3667C50.8667 45.7364 45.703 50.9001 39.3334 50.9001C32.9637 50.9001 27.8 45.7364 27.8 39.3667ZM32.6667 39.3667C32.6667 43.0486 35.6515 46.0334 39.3334 46.0334C43.0153 46.0334 46 43.0486 46 39.3667C46 35.6848 43.0153 32.7001 39.3334 32.7001C35.6515 32.7001 32.6667 35.6848 32.6667 39.3667Z" fill="white"/>
</g>
<defs>
<filter id="filter0_d_37_21" x="-4" y="0.00012207" width="88" height="88" filterUnits="userSpaceOnUse" color-interpolation-filters="sRGB">
<feFlood flood-opacity="0" result="BackgroundImageFix"/>
<feColorMatrix in="SourceAlpha" type="matrix" values="0 0 0 0 0 0 0 0 0 0 0 0 0 0 0 0 0 0 127 0" result="hardAlpha"/>
<feOffset dy="4"/>
<feGaussianBlur stdDeviation="2"/>
<feComposite in2="hardAlpha" operator="out"/>
<feColorMatrix type="matrix" values="0 0 0 0 0 0 0 0 0 0 0 0 0 0 0 0 0 0 0.25 0"/>
<feBlend mode="normal" in2="BackgroundImageFix" result="effect1_dropShadow_37_21"/>
<feBlend mode="normal" in="SourceGraphic" in2="effect1_dropShadow_37_21" result="shape"/>
</filter>
</defs>
</svg>
