<svg width="42" height="42" viewBox="0 0 42 42" fill="none" xmlns="http://www.w3.org/2000/svg">
<rect x="0.5" y="0.5" width="41" height="41" rx="4.5" fill="#F4F4F4" stroke="#BEBEBE"/>
<path d="M18.3333 25L18.3333 21" stroke="black" stroke-width="2" stroke-linecap="round"/>
<path d="M23.6667 25L23.6667 21" stroke="black" stroke-width="2" stroke-linecap="round"/>
<path d="M9 14.3335H33V14.3335C31.1144 14.3335 30.1716 14.3335 29.5858 14.9193C29 15.5051 29 16.4479 29 18.3335V27.6668C29 29.5524 29 30.4953 28.4142 31.081C27.8284 31.6668 26.8856 31.6668 25 31.6668H17C15.1144 31.6668 14.1716 31.6668 13.5858 31.081C13 30.4953 13 29.5524 13 27.6668V18.3335C13 16.4479 13 15.5051 12.4142 14.9193C11.8284 14.3335 10.8856 14.3335 9 14.3335V14.3335Z" stroke="black" stroke-width="2" stroke-linecap="round"/>
<path d="M18.4243 9.49412C18.5762 9.35237 18.911 9.2271 19.3767 9.13776C19.8424 9.04843 20.4131 9 21.0001 9C21.5871 9 22.1577 9.04842 22.6234 9.13776C23.0892 9.2271 23.424 9.35236 23.5759 9.49412" stroke="black" stroke-width="2" stroke-linecap="round"/>
</svg>
